<svg xmlns="http://www.w3.org/2000/svg" viewBox="0 0 633 633"><defs><style>.a,.b{fill:none;stroke:#3c5368;stroke-linecap:round;stroke-width:14px;}.a{stroke-linejoin:round;}.b{stroke-miterlimit:10;}</style></defs><title>profil_logo_web</title><polygon class="a" points="316.5 55.8 483.2 327.3 483.2 442.7 316.5 536.4 149.8 442.7 149.8 327.3 316.5 55.8"/><line class="b" x1="291.7" y1="383.1" x2="315.1" y2="396.6"/><line class="b" x1="254.2" y1="361.5" x2="277.3" y2="374.8"/><polyline class="a" points="316.1 142 195.9 327.3 234 349.3"/><path class="a" d="M902.9,485.4V316.8L736.2,588.3V703.7l166.7,93.7V628.8a71.7,71.7,0,1,0,0-143.4Z" transform="translate(-586.4 -261)"/><line class="a" x1="316.5" y1="113.7" x2="316.5" y2="444.3"/><path class="a" d="M932.7,461.9a99.8,99.8,0,0,1,9,187.1" transform="translate(-586.4 -261)"/><circle class="a" cx="316.5" cy="316.5" r="309.5"/></svg>